<?xml version="1.0" standalone="no"?>
<!DOCTYPE svg PUBLIC "-//W3C//DTD SVG 20010904//EN"
 "http://www.w3.org/TR/2001/REC-SVG-20010904/DTD/svg10.dtd">
<svg version="1.0" xmlns="http://www.w3.org/2000/svg"
 width="120.000000pt" height="112.000000pt" viewBox="0 0 120.000000 112.000000"
 preserveAspectRatio="xMidYMid meet">

<g transform="translate(0.000000,112.000000) scale(0.100000,-0.100000)"
fill="#000000" stroke="none">
<path d="M546 973 c-3 -3 -6 -42 -6 -85 0 -59 3 -79 13 -76 8 3 13 31 15 81 2
69 -5 97 -22 80z"/>
<path d="M445 938 c-7 -17 33 -154 42 -145 8 9 -10 127 -23 144 -12 17 -13 17
-19 1z"/>
<path d="M637 923 c-3 -5 -8 -24 -12 -43 -3 -19 -13 -50 -22 -68 -12 -28 -19
-33 -40 -29 -15 3 -27 -1 -30 -9 -3 -8 -13 -14 -22 -14 -10 0 -21 -3 -25 -7
-4 -5 -13 -8 -19 -8 -7 0 -11 -8 -9 -18 2 -9 -2 -17 -8 -17 -5 0 -10 -7 -10
-15 0 -8 4 -15 10 -15 5 0 9 -3 9 -7 -1 -5 -1 -16 0 -25 1 -17 4 -17 41 -2 35
14 44 14 82 1 75 -27 94 -28 112 -8 13 15 14 20 4 24 -7 3 -1 6 13 6 31 1 39
8 32 27 -8 20 -27 17 -54 -8 -22 -21 -30 -23 -57 -19 -16 2 -34 54 -22 61 10
6 45 114 57 173 4 20 1 27 -10 27 -9 0 -18 -3 -20 -7z m-137 -203 c0 -5 -4
-10 -10 -10 -5 0 -10 5 -10 10 0 6 5 10 10 10 6 0 10 -4 10 -10z m40 0 c0 -5
-4 -10 -10 -10 -5 0 -10 5 -10 10 0 6 5 10 10 10 6 0 10 -4 10 -10z m40 0 c0
-5 -4 -10 -10 -10 -5 0 -10 5 -10 10 0 6 5 10 10 10 6 0 10 -4 10 -10z"/>
<path d="M360 803 c0 -10 52 -63 62 -63 18 0 7 30 -18 49 -27 21 -44 27 -44
14z"/>
<path d="M728 574 c2 -23 -1 -59 -8 -79 -14 -42 -6 -61 9 -22 16 41 21 135 8
140 -8 3 -11 -9 -9 -39z"/>
<path d="M341 554 c0 -11 3 -14 6 -6 3 7 2 16 -1 19 -3 4 -6 -2 -5 -13z"/>
<path d="M280 400 c-7 -4 -19 -6 -26 -3 -6 2 -15 0 -19 -6 -3 -6 0 -12 7 -12
7 -1 18 -2 23 -4 6 -1 25 -3 43 -3 28 -2 32 -6 32 -29 0 -14 -7 -34 -15 -43
-14 -16 -14 -17 10 -15 23 3 24 1 13 -18 -24 -43 -8 -79 22 -52 11 10 20 11
30 4 12 -9 12 -10 -3 -5 -10 3 -16 2 -13 -3 3 -5 22 -12 42 -15 45 -9 64 6 64
50 0 20 5 34 13 34 8 0 7 4 -3 10 -13 8 -13 10 2 10 9 0 18 6 20 12 5 15 -38
52 -51 43 -5 -3 -13 0 -17 6 -5 8 -2 10 7 5 8 -4 6 -1 -3 7 -10 8 -16 16 -14
18 9 8 -109 3 -123 -5 -9 -6 -12 -5 -8 1 9 14 -16 23 -33 13z m96 -54 c-8 -20
-18 -36 -21 -36 -3 0 -1 9 5 21 9 15 8 24 -2 37 -11 13 -11 15 5 9 10 -4 17
-2 17 5 0 6 3 9 6 6 3 -3 -2 -22 -10 -42z m83 -47 c-22 -13 -31 -11 -17 5 7 8
17 12 22 9 4 -3 2 -9 -5 -14z m-69 -29 c0 -5 -4 -10 -10 -10 -5 0 -10 5 -10
10 0 6 5 10 10 10 6 0 10 -4 10 -10z m40 0 c0 -5 -4 -10 -10 -10 -5 0 -10 5
-10 10 0 6 5 10 10 10 6 0 10 -4 10 -10z m40 0 c0 -5 -4 -10 -10 -10 -5 0 -10
5 -10 10 0 6 5 10 10 10 6 0 10 -4 10 -10z m-10 -35 c8 5 7 0 -2 -14 -20 -32
-45 -21 -32 14 5 12 9 13 14 5 4 -7 13 -9 20 -5z"/>
<path d="M584 357 c-38 -29 -60 -64 -48 -76 2 -3 10 1 16 7 14 14 32 16 24 3
-4 -5 0 -11 6 -14 7 -2 9 -8 5 -13 -4 -5 -12 -2 -18 6 -7 12 -11 12 -17 2 -5
-7 -15 -12 -22 -10 -14 3 -28 -48 -29 -105 -1 -22 3 -28 16 -25 10 2 19 12 21
23 2 11 10 34 18 51 11 25 19 30 36 27 17 -3 31 -23 56 -78 17 -40 32 -79 32
-87 0 -17 28 -58 41 -58 15 0 11 32 -9 70 -11 19 -22 49 -25 66 -5 27 -2 33
19 43 19 8 24 16 19 31 -4 12 -2 20 5 20 7 0 9 8 5 20 -3 11 -3 20 2 20 17 0
10 47 -10 59 -43 27 -88 51 -95 50 -4 0 -26 -15 -48 -32z m46 -87 c0 -5 -4
-10 -10 -10 -5 0 -10 5 -10 10 0 6 5 10 10 10 6 0 10 -4 10 -10z m40 0 c0 -5
-4 -10 -10 -10 -5 0 -10 5 -10 10 0 6 5 10 10 10 6 0 10 -4 10 -10z m40 0 c0
-5 -4 -10 -10 -10 -5 0 -10 5 -10 10 0 6 5 10 10 10 6 0 10 -4 10 -10z"/>
<path d="M818 293 c6 -2 18 -2 25 0 6 3 1 5 -13 5 -14 0 -19 -2 -12 -5z"/>
<path d="M278 256 c-10 -7 -15 -16 -11 -19 3 -4 0 -7 -8 -7 -9 0 -24 -7 -35
-16 -10 -8 -13 -12 -5 -8 9 4 12 3 7 -4 -4 -6 -13 -9 -20 -6 -14 5 -29 -10
-32 -33 -1 -7 3 -13 10 -13 17 0 68 55 59 64 -4 4 -1 4 8 1 22 -8 73 17 77 38
3 21 -25 23 -50 3z"/>
<path d="M770 224 c0 -7 86 -85 106 -97 25 -15 23 10 -4 36 -28 27 -102 71
-102 61z"/>
<path d="M290 159 c0 -5 5 -7 10 -4 6 3 10 8 10 11 0 2 -4 4 -10 4 -5 0 -10
-5 -10 -11z"/>
<path d="M463 155 c-16 -17 -17 -35 -2 -35 5 0 8 -4 5 -8 -2 -4 -1 -14 4 -22
6 -10 9 1 8 33 0 26 -1 47 -2 47 0 -1 -7 -7 -13 -15z"/>
<path d="M730 164 c0 -11 59 -101 76 -115 9 -7 18 -9 24 -3 6 6 -7 30 -35 64
-43 52 -65 71 -65 54z"/>
<path d="M246 107 c-29 -38 -32 -47 -13 -47 14 0 37 33 42 61 5 27 0 24 -29
-14z"/>
<path d="M326 54 c-3 -9 -6 -21 -6 -27 0 -16 23 9 26 28 3 20 -12 19 -20 -1z"/>
</g>
</svg>
